<?xml version="1.0" encoding="UTF-8" standalone="no"?>
<!-- Created with Inkscape (http://www.inkscape.org/) -->

<svg
   xmlns:dc="http://purl.org/dc/elements/1.1/"
   xmlns:cc="http://creativecommons.org/ns#"
   xmlns:rdf="http://www.w3.org/1999/02/22-rdf-syntax-ns#"
   xmlns:svg="http://www.w3.org/2000/svg"
   xmlns="http://www.w3.org/2000/svg"
   xmlns:sodipodi="http://sodipodi.sourceforge.net/DTD/sodipodi-0.dtd"
   xmlns:inkscape="http://www.inkscape.org/namespaces/inkscape"
   width="1920"
   height="1080"
   viewBox="0 0 507.99999 285.75001"
   version="1.1"
   id="svg19993"
   inkscape:version="0.92.5 (2060ec1f9f, 2020-04-08)"
   sodipodi:docname="evil_wallpaper_blue_waves.svg"
   inkscape:export-filename="/media/phil/Storage/EvilMainframe/wallpapers/evil_wallpaper_blue_waves.png"
   inkscape:export-xdpi="192"
   inkscape:export-ydpi="192">
  <defs
     id="defs19987">
    <clipPath
       clipPathUnits="userSpaceOnUse"
       id="clipPath20549">
      <rect
         style="opacity:1;fill:#808000;fill-opacity:1;stroke:#000000;stroke-width:0;stroke-linecap:round;stroke-miterlimit:4;stroke-dasharray:none;stroke-opacity:1"
         id="rect20551"
         width="508"
         height="285.75"
         x="0"
         y="11.250002" />
    </clipPath>
    <filter
       inkscape:collect="always"
       style="color-interpolation-filters:sRGB"
       id="filter20569"
       x="-0.042987337"
       width="1.0859747"
       y="-0.14203807"
       height="1.2840761">
      <feGaussianBlur
         inkscape:collect="always"
         stdDeviation="5.7550373"
         id="feGaussianBlur20571" />
    </filter>
    <filter
       inkscape:collect="always"
       style="color-interpolation-filters:sRGB"
       id="filter20573"
       x="-0.039591424"
       width="1.0791828"
       y="-0.12383383"
       height="1.2476677">
      <feGaussianBlur
         inkscape:collect="always"
         stdDeviation="6.8601196"
         id="feGaussianBlur20575" />
    </filter>
    <filter
       inkscape:collect="always"
       style="color-interpolation-filters:sRGB"
       id="filter20577"
       x="-0.040183647"
       width="1.0803673"
       y="-0.11837698"
       height="1.236754">
      <feGaussianBlur
         inkscape:collect="always"
         stdDeviation="8.5055387"
         id="feGaussianBlur20579" />
    </filter>
    <filter
       inkscape:collect="always"
       style="color-interpolation-filters:sRGB"
       id="filter20581"
       x="-0.041693561"
       width="1.0833871"
       y="-0.10696544"
       height="1.2139309">
      <feGaussianBlur
         inkscape:collect="always"
         stdDeviation="8.825137"
         id="feGaussianBlur20583" />
    </filter>
    <clipPath
       clipPathUnits="userSpaceOnUse"
       id="clipPath199">
      <rect
         style="opacity:1;fill:#ececec;fill-opacity:1;stroke:#000000;stroke-width:0;stroke-linecap:round;stroke-miterlimit:4;stroke-dasharray:none;stroke-opacity:1"
         id="rect201"
         width="508"
         height="285.75"
         x="-135.30626"
         y="-74.17263" />
    </clipPath>
    <clipPath
       clipPathUnits="userSpaceOnUse"
       id="clipPath203">
      <rect
         style="opacity:1;fill:#ececec;fill-opacity:1;stroke:#000000;stroke-width:0;stroke-linecap:round;stroke-miterlimit:4;stroke-dasharray:none;stroke-opacity:1"
         id="rect205"
         width="508"
         height="285.75"
         x="0"
         y="11.250002" />
    </clipPath>
    <clipPath
       clipPathUnits="userSpaceOnUse"
       id="clipPath207">
      <rect
         style="opacity:1;fill:#ececec;fill-opacity:1;stroke:#000000;stroke-width:0;stroke-linecap:round;stroke-miterlimit:4;stroke-dasharray:none;stroke-opacity:1"
         id="rect209"
         width="508"
         height="285.75"
         x="0"
         y="11.250002" />
    </clipPath>
    <clipPath
       clipPathUnits="userSpaceOnUse"
       id="clipPath211">
      <rect
         style="opacity:1;fill:#ececec;fill-opacity:1;stroke:#000000;stroke-width:0;stroke-linecap:round;stroke-miterlimit:4;stroke-dasharray:none;stroke-opacity:1"
         id="rect213"
         width="508"
         height="285.75"
         x="0"
         y="11.250002" />
    </clipPath>
    <clipPath
       clipPathUnits="userSpaceOnUse"
       id="clipPath215">
      <rect
         style="opacity:1;fill:#ececec;fill-opacity:1;stroke:#000000;stroke-width:0;stroke-linecap:round;stroke-miterlimit:4;stroke-dasharray:none;stroke-opacity:1"
         id="rect217"
         width="508"
         height="285.75"
         x="0"
         y="11.250002" />
    </clipPath>
    <clipPath
       clipPathUnits="userSpaceOnUse"
       id="clipPath219">
      <rect
         style="opacity:1;fill:#ececec;fill-opacity:1;stroke:#000000;stroke-width:0;stroke-linecap:round;stroke-miterlimit:4;stroke-dasharray:none;stroke-opacity:1"
         id="rect221"
         width="508"
         height="285.75"
         x="0"
         y="11.250002" />
    </clipPath>
    <clipPath
       clipPathUnits="userSpaceOnUse"
       id="clipPath223">
      <rect
         style="opacity:1;fill:#ececec;fill-opacity:1;stroke:#000000;stroke-width:0;stroke-linecap:round;stroke-miterlimit:4;stroke-dasharray:none;stroke-opacity:1"
         id="rect225"
         width="508"
         height="285.75"
         x="0"
         y="11.250002" />
    </clipPath>
    <clipPath
       clipPathUnits="userSpaceOnUse"
       id="clipPath227">
      <rect
         style="opacity:1;fill:#ececec;fill-opacity:1;stroke:#000000;stroke-width:0;stroke-linecap:round;stroke-miterlimit:4;stroke-dasharray:none;stroke-opacity:1"
         id="rect229"
         width="508"
         height="285.75"
         x="0"
         y="11.250002" />
    </clipPath>
    <clipPath
       clipPathUnits="userSpaceOnUse"
       id="clipPath231">
      <rect
         style="opacity:1;fill:#ececec;fill-opacity:1;stroke:#000000;stroke-width:0;stroke-linecap:round;stroke-miterlimit:4;stroke-dasharray:none;stroke-opacity:1"
         id="rect233"
         width="508"
         height="285.75"
         x="0"
         y="11.250002" />
    </clipPath>
    <clipPath
       clipPathUnits="userSpaceOnUse"
       id="clipPath235">
      <rect
         style="opacity:1;fill:#ececec;fill-opacity:1;stroke:#000000;stroke-width:0;stroke-linecap:round;stroke-miterlimit:4;stroke-dasharray:none;stroke-opacity:1"
         id="rect237"
         width="508"
         height="285.75"
         x="0"
         y="11.250002" />
    </clipPath>
  </defs>
  <sodipodi:namedview
     id="base"
     pagecolor="#ffffff"
     bordercolor="#666666"
     borderopacity="1.0"
     inkscape:pageopacity="0.0"
     inkscape:pageshadow="2"
     inkscape:zoom="0.35"
     inkscape:cx="142.10031"
     inkscape:cy="850.56122"
     inkscape:document-units="px"
     inkscape:current-layer="layer1"
     showgrid="false"
     units="px"
     width="1290px"
     inkscape:pagecheckerboard="true"
     inkscape:snap-page="true"
     inkscape:snap-nodes="true"
     inkscape:window-width="1920"
     inkscape:window-height="1151"
     inkscape:window-x="1200"
     inkscape:window-y="343"
     inkscape:window-maximized="1"
     inkscape:snap-others="true"
     inkscape:object-nodes="false" />
  <metadata
     id="metadata19990">
    <rdf:RDF>
      <cc:Work
         rdf:about="">
        <dc:format>image/svg+xml</dc:format>
        <dc:type
           rdf:resource="http://purl.org/dc/dcmitype/StillImage" />
        <dc:title />
      </cc:Work>
    </rdf:RDF>
  </metadata>
  <g
     inkscape:label="Layer 1"
     inkscape:groupmode="layer"
     id="layer1"
     transform="translate(0,-11.250002)">
    <rect
       style="opacity:1;fill:#162d50;fill-opacity:1;stroke:#000000;stroke-width:0;stroke-linecap:round;stroke-miterlimit:4;stroke-dasharray:none;stroke-opacity:1"
       id="rect20553"
       width="508"
       height="285.75"
       x="0"
       y="11.250002"
       clip-path="url(#clipPath235)" />
    <path
       clip-path="url(#clipPath231)"
       sodipodi:nodetypes="cccc"
       inkscape:connector-curvature="0"
       id="path20555"
       d="M 0,11.675225 H 508 C 370.94713,40.96838 351.65909,290.15186 0,183.14525 Z"
       style="opacity:1;fill:#0b1728;fill-opacity:1;stroke:#000000;stroke-width:0;stroke-linecap:round;stroke-miterlimit:4;stroke-dasharray:none;stroke-opacity:1;filter:url(#filter20581)" />
    <path
       style="opacity:1;fill:#214478;fill-opacity:1;stroke:#000000;stroke-width:0;stroke-linecap:round;stroke-miterlimit:4;stroke-dasharray:none;stroke-opacity:1"
       d="M 0,11.250002 H 508 C 363.95457,38.464288 357.32873,283.67902 0,182.72003 Z"
       id="rect20538"
       inkscape:connector-curvature="0"
       sodipodi:nodetypes="cccc"
       clip-path="url(#clipPath227)" />
    <path
       style="opacity:1;fill:#0b1728;fill-opacity:1;stroke:#000000;stroke-width:0;stroke-linecap:round;stroke-miterlimit:4;stroke-dasharray:none;stroke-opacity:1;filter:url(#filter20577)"
       d="M 0,11.250002 H 508 C 254.27856,20.871705 341.29802,246.82535 0,166.42917 Z"
       id="path20563"
       inkscape:connector-curvature="0"
       sodipodi:nodetypes="cccc"
       clip-path="url(#clipPath223)" />
    <path
       sodipodi:nodetypes="cccc"
       inkscape:connector-curvature="0"
       id="path20541"
       d="m 0,11.250002 h 508 c -255.8596,0 -158.68389,229.160878 -508,153.041008 z"
       style="opacity:1;fill:#2c5aa0;fill-opacity:1;stroke:#000000;stroke-width:0;stroke-linecap:round;stroke-miterlimit:4;stroke-dasharray:none;stroke-opacity:1"
       clip-path="url(#clipPath219)" />
    <path
       sodipodi:nodetypes="cccc"
       inkscape:connector-curvature="0"
       id="path20565"
       d="M 0,11.250002 H 415.85489 C 232.10445,19.268088 296.31981,197.54894 0,128.23533 Z"
       style="opacity:1;fill:#0b1728;fill-opacity:1;stroke:#000000;stroke-width:0;stroke-linecap:round;stroke-miterlimit:4;stroke-dasharray:none;stroke-opacity:1;filter:url(#filter20573)"
       clip-path="url(#clipPath215)" />
    <path
       style="display:inline;opacity:1;fill:#5f8dd3;fill-opacity:1;stroke:#000000;stroke-width:0;stroke-linecap:round;stroke-miterlimit:4;stroke-dasharray:none;stroke-opacity:1"
       d="M 0,11.250002 H 415.85489 C 231.56991,11.250002 298.45797,191.66901 0,126.63171 Z"
       id="path20543"
       inkscape:connector-curvature="0"
       sodipodi:nodetypes="cccc"
       clip-path="url(#clipPath211)" />
    <path
       style="display:inline;opacity:1;fill:#0b1728;fill-opacity:1;stroke:#000000;stroke-width:0;stroke-linecap:round;stroke-miterlimit:4;stroke-dasharray:none;stroke-opacity:1;filter:url(#filter20569)"
       d="M 0,11.250002 H 321.306 C 205.39608,16.595393 186.28514,156.14677 0,91.377282 Z"
       id="path20567"
       inkscape:connector-curvature="0"
       sodipodi:nodetypes="cccc"
       clip-path="url(#clipPath207)" />
    <path
       sodipodi:nodetypes="cccc"
       inkscape:connector-curvature="0"
       id="path20545"
       d="M 0,11.250002 H 321.306 C 204.327,11.250002 180.67248,155.61223 0,89.773665 Z"
       style="display:inline;opacity:1;fill:#87aade;fill-opacity:1;stroke:#000000;stroke-width:0;stroke-linecap:round;stroke-miterlimit:4;stroke-dasharray:none;stroke-opacity:1"
       clip-path="url(#clipPath203)" />
    <g
       transform="translate(135.30626,100.76847)"
       id="layer1-0"
       inkscape:label="Layer 1"
       clip-path="url(#clipPath199)">
      <rect
         y="121.48675"
         x="-36.550297"
         height="95.51458"
         width="307.44583"
         id="rect894"
         style="display:none;fill:#00000f;fill-opacity:1;stroke:#ffffe4;stroke-width:0;stroke-miterlimit:4;stroke-dasharray:none;stroke-opacity:1" />
      <g
         id="text886"
         style="font-style:normal;font-variant:normal;font-weight:normal;font-stretch:normal;font-size:43.35324478px;line-height:1.25;font-family:MeninBlue;-inkscape-font-specification:MeninBlue;letter-spacing:0px;word-spacing:0px;fill:#0090ff;fill-opacity:1;stroke:none;stroke-width:0.26458335"
         transform="matrix(1.0042271,0,0,0.99579067,0,-4.2333335)"
         aria-label="MAINFRAME">
        <path
           inkscape:connector-curvature="0"
           id="path19862"
           d="M 29.913035,164.33904 H 16.039996 l 0.953772,-2.16766 h 12.919267 z"
           style="fill:#005aa0;fill-opacity:1;stroke-width:0.26458335" />
        <path
           inkscape:connector-curvature="0"
           id="path19860"
           d="M 29.913035,168.5443 H 14.0891 l 0.997125,-2.16766 h 14.82681 z"
           style="fill:#006bbd;fill-opacity:1;stroke-width:0.26458335" />
        <path
           inkscape:connector-curvature="0"
           id="path19858"
           d="M 25.751123,172.40274 H 12.311617 l 0.867065,-1.86419 h 12.572441 z"
           style="fill:#0071c8;fill-opacity:1;stroke-width:0.26458335" />
        <path
           inkscape:connector-curvature="0"
           id="path19856"
           d="m 25.751123,179.98956 h -7.89029 v -1.99425 h 7.89029 z"
           style="fill:#0090ff;fill-opacity:1;stroke-width:0.26458335" />
        <path
           inkscape:connector-curvature="0"
           id="path19854"
           d="m 25.751123,184.32488 h -7.89029 v -2.42778 h 7.89029 z"
           style="fill:#2da4ff;fill-opacity:1;stroke-width:0.26458335" />
        <path
           inkscape:connector-curvature="0"
           id="path19852"
           d="M 29.913035,188.5735 H 17.860833 v -2.16766 h 12.052202 z"
           style="fill:#4bb1ff;fill-opacity:1;stroke-width:0.26458335" />
        <path
           inkscape:connector-curvature="0"
           id="path19850"
           d="m 25.751123,176.21783 h -7.89029 v -1.3006 l -0.520239,1.3006 H 3.9877944 l -0.5635922,-1.43066 v 1.43066 h -7.6301711 v -1.90755 H 10.187308 l 0.650299,1.34395 0.606945,-1.34395 h 14.306571 z"
           style="fill:#007cdc;fill-opacity:1;stroke-width:0.26458335" />
        <path
           inkscape:connector-curvature="0"
           id="path19848"
           d="M 5.3750982,164.29568 H -8.4112336 v -2.16766 H 4.3346203 Z"
           style="fill:#005aa0;fill-opacity:1;stroke-width:0.26458335" />
        <path
           inkscape:connector-curvature="0"
           id="path19846"
           d="M 29.913035,192.77877 H 17.860833 v -2.12431 h 12.052202 z"
           style="fill:#6ac0ff;fill-opacity:1;stroke-width:0.26458335" />
        <path
           inkscape:connector-curvature="0"
           id="path19844"
           d="M 7.3693475,168.50095 H -8.4112336 v -2.16766 H 6.3288696 Z"
           style="fill:#006bbd;fill-opacity:1;stroke-width:0.26458335" />
        <path
           inkscape:connector-curvature="0"
           id="path19842"
           d="m 16.646942,177.95196 -0.780359,1.99425 H 5.505158 l -0.8237117,-1.99425 z"
           style="fill:#0090ff;fill-opacity:1;stroke-width:0.26458335" />
        <path
           inkscape:connector-curvature="0"
           id="path19840"
           d="M 9.2768903,172.35939 H -4.2059689 v -1.86419 h 12.572441 z"
           style="fill:#0071c8;fill-opacity:1;stroke-width:0.26458335" />
        <path
           inkscape:connector-curvature="0"
           id="path19838"
           d="m 15.129578,181.85375 -0.997124,2.42778 H 7.282641 l -0.9971246,-2.42778 z"
           style="fill:#2da4ff;fill-opacity:1;stroke-width:0.26458335" />
        <path
           inkscape:connector-curvature="0"
           id="path19836"
           d="m 13.308742,186.36249 -0.823712,2.16766 H 9.0167708 l -0.8670649,-2.16766 z"
           style="fill:#4bb1ff;fill-opacity:1;stroke-width:0.26458335" />
        <path
           inkscape:connector-curvature="0"
           id="path19834"
           d="m 3.4242022,179.94621 h -7.6301711 v -1.99425 h 7.6301711 z"
           style="fill:#0090ff;fill-opacity:1;stroke-width:0.26458335" />
        <path
           inkscape:connector-curvature="0"
           id="path19832"
           d="m 11.661319,190.6111 -0.867065,2.16767 -0.9104183,-2.16767 z"
           style="fill:#6ac0ff;fill-opacity:1;stroke-width:0.26458335" />
        <path
           inkscape:connector-curvature="0"
           id="path19830"
           d="m 3.4242022,184.28153 h -7.6301711 v -2.42778 h 7.6301711 z"
           style="fill:#2da4ff;fill-opacity:1;stroke-width:0.26458335" />
        <path
           inkscape:connector-curvature="0"
           id="path19828"
           d="M 3.4242022,188.53015 H -8.4112336 v -2.16766 H 3.4242022 Z"
           style="fill:#4bb1ff;fill-opacity:1;stroke-width:0.26458335" />
        <path
           inkscape:connector-curvature="0"
           id="path19611"
           d="M 3.4242022,192.73541 H -8.4112336 V 190.6111 H 3.4242022 Z"
           style="fill:#6ac0ff;fill-opacity:1;stroke-width:0.26458335" />
        <path
           inkscape:connector-curvature="0"
           id="path19824"
           d="M 51.632962,164.29568 H 37.586511 l 0.346826,-2.16766 h 13.309446 z"
           style="fill:#005aa0;fill-opacity:1;stroke-width:0.26458335" />
        <path
           inkscape:connector-curvature="0"
           id="path19822"
           d="m 53.106972,172.48945 h -7.630171 l -0.346826,-1.99425 h 7.586818 z"
           style="fill:#0071c8;fill-opacity:1;stroke-width:0.26458335" />
        <path
           inkscape:connector-curvature="0"
           id="path19820"
           d="m 52.369967,168.50095 h -7.586818 l -0.216766,-1.34395 -0.216766,1.34395 h -7.500111 l 0.346826,-2.16766 h 14.783456 z"
           style="fill:#006bbd;fill-opacity:1;stroke-width:0.26458335" />
        <path
           inkscape:connector-curvature="0"
           id="path19818"
           d="m 53.800624,176.43459 h -7.630171 l -0.346826,-1.99425 h 7.586818 z"
           style="fill:#007cdc;fill-opacity:1;stroke-width:0.26458335" />
        <path
           inkscape:connector-curvature="0"
           id="path19816"
           d="m 44.002791,170.4952 -0.390179,1.99425 h -7.456758 l 0.346826,-1.99425 z"
           style="fill:#0071c8;fill-opacity:1;stroke-width:0.26458335" />
        <path
           inkscape:connector-curvature="0"
           id="path19814"
           d="M 59.783372,188.53015 H 47.60111 l -0.303472,-2.16766 h 12.485734 z"
           style="fill:#4bb1ff;fill-opacity:1;stroke-width:0.26458335" />
        <path
           inkscape:connector-curvature="0"
           id="path19812"
           d="M 54.494276,180.37974 H 34.76855 l 0.346826,-1.9509 H 54.14745 Z"
           style="fill:#0090ff;fill-opacity:1;stroke-width:0.26458335" />
        <path
           inkscape:connector-curvature="0"
           id="path19810"
           d="m 43.309139,174.44034 -0.390179,1.99425 h -7.456758 l 0.346826,-1.99425 z"
           style="fill:#007cdc;fill-opacity:1;stroke-width:0.26458335" />
        <path
           inkscape:connector-curvature="0"
           id="path19808"
           d="M 59.783372,192.73541 H 48.208056 l -0.303473,-2.12431 h 11.878789 z"
           style="fill:#6ac0ff;fill-opacity:1;stroke-width:0.26458335" />
        <path
           inkscape:connector-curvature="0"
           id="path19806"
           d="M 55.187928,184.28153 H 34.118251 l 0.346826,-1.99425 h 20.376025 z"
           style="fill:#2da4ff;fill-opacity:1;stroke-width:0.26458335" />
        <path
           inkscape:connector-curvature="0"
           id="path19804"
           d="m 41.835129,186.36249 -0.303473,2.16766 H 29.306041 v -2.16766 z"
           style="fill:#4bb1ff;fill-opacity:1;stroke-width:0.26458335" />
        <path
           inkscape:connector-curvature="0"
           id="path19613"
           d="m 41.228183,190.6111 -0.303472,2.12431 h -11.61867 v -2.12431 z"
           style="fill:#6ac0ff;fill-opacity:1;stroke-width:0.26458335" />
        <path
           inkscape:connector-curvature="0"
           id="path19800"
           d="M 78.77198,164.29568 H 60.303498 v -2.16766 H 78.77198 Z"
           style="fill:#005aa0;fill-opacity:1;stroke-width:0.26458335" />
        <path
           inkscape:connector-curvature="0"
           id="path19798"
           d="M 78.77198,168.50095 H 60.303498 v -2.16766 H 78.77198 Z"
           style="fill:#006bbd;fill-opacity:1;stroke-width:0.26458335" />
        <path
           inkscape:connector-curvature="0"
           id="path19796"
           d="M 73.69965,172.35939 H 65.332474 V 170.4952 H 73.69965 Z"
           style="fill:#0071c8;fill-opacity:1;stroke-width:0.26458335" />
        <path
           inkscape:connector-curvature="0"
           id="path19794"
           d="m 73.69965,176.21783 h -8.367176 v -1.90755 h 8.367176 z"
           style="fill:#007cdc;fill-opacity:1;stroke-width:0.26458335" />
        <path
           inkscape:connector-curvature="0"
           id="path19792"
           d="m 73.69965,179.94621 h -8.367176 v -1.99425 h 8.367176 z"
           style="fill:#0090ff;fill-opacity:1;stroke-width:0.26458335" />
        <path
           inkscape:connector-curvature="0"
           id="path19790"
           d="m 73.69965,184.28153 h -8.367176 v -2.42778 h 8.367176 z"
           style="fill:#2da4ff;fill-opacity:1;stroke-width:0.26458335" />
        <path
           inkscape:connector-curvature="0"
           id="path19788"
           d="M 78.77198,188.53015 H 60.303498 v -2.16766 H 78.77198 Z"
           style="fill:#4bb1ff;fill-opacity:1;stroke-width:0.26458335" />
        <path
           inkscape:connector-curvature="0"
           id="path19615"
           d="M 78.77198,192.73541 H 60.303498 V 190.6111 H 78.77198 Z"
           style="fill:#6ac0ff;fill-opacity:1;stroke-width:0.26458335" />
        <path
           inkscape:connector-curvature="0"
           id="path19784"
           d="m 111.37356,164.29568 h -11.27185 v -2.16766 h 11.27185 z"
           style="fill:#005aa0;fill-opacity:1;stroke-width:0.26458335" />
        <path
           inkscape:connector-curvature="0"
           id="path19782"
           d="m 111.37356,168.50095 h -11.27185 v -2.16766 h 11.27185 z"
           style="fill:#006bbd;fill-opacity:1;stroke-width:0.26458335" />
        <path
           inkscape:connector-curvature="0"
           id="path19780"
           d="m 107.21164,172.35939 h -7.10993 v -1.86419 h 7.10993 z"
           style="fill:#0071c8;fill-opacity:1;stroke-width:0.26458335" />
        <path
           inkscape:connector-curvature="0"
           id="path19778"
           d="m 107.21164,176.21783 h -7.10993 v -1.90755 h 7.10993 z"
           style="fill:#007cdc;fill-opacity:1;stroke-width:0.26458335" />
        <path
           inkscape:connector-curvature="0"
           id="path19776"
           d="M 92.471541,164.29568 H 79.422214 v -2.16766 H 91.38771 Z"
           style="fill:#005aa0;fill-opacity:1;stroke-width:0.26458335" />
        <path
           inkscape:connector-curvature="0"
           id="path19774"
           d="M 107.21164,179.94621 H 93.165193 l -0.997125,-1.99425 h 7.283346 l 0.650296,1.21389 v -1.21389 h 7.10993 z"
           style="fill:#0090ff;fill-opacity:1;stroke-width:0.26458335" />
        <path
           inkscape:connector-curvature="0"
           id="path19772"
           d="M 94.639203,168.50095 H 79.422214 v -2.16766 h 14.089805 z"
           style="fill:#006bbd;fill-opacity:1;stroke-width:0.26458335" />
        <path
           inkscape:connector-curvature="0"
           id="path19770"
           d="M 96.633453,172.35939 H 83.584126 v -1.86419 h 12.052202 z"
           style="fill:#0071c8;fill-opacity:1;stroke-width:0.26458335" />
        <path
           inkscape:connector-curvature="0"
           id="path19768"
           d="M 107.21164,184.28153 H 95.289502 l -1.170538,-2.42778 h 13.092676 z"
           style="fill:#2da4ff;fill-opacity:1;stroke-width:0.26458335" />
        <path
           inkscape:connector-curvature="0"
           id="path19766"
           d="M 111.37356,188.53015 H 97.370458 l -1.040478,-2.16766 h 15.04358 z"
           style="fill:#4bb1ff;fill-opacity:1;stroke-width:0.26458335" />
        <path
           inkscape:connector-curvature="0"
           id="path19764"
           d="m 98.584349,176.21783 h -7.239992 l -0.606946,-1.25725 v 1.25725 h -7.153285 v -1.90755 h 14.003098 z"
           style="fill:#007cdc;fill-opacity:1;stroke-width:0.26458335" />
        <path
           inkscape:connector-curvature="0"
           id="path19762"
           d="M 111.37356,192.73541 H 99.451414 l -1.040478,-2.12431 h 12.962624 z"
           style="fill:#6ac0ff;fill-opacity:1;stroke-width:0.26458335" />
        <path
           inkscape:connector-curvature="0"
           id="path19760"
           d="m 90.737411,179.94621 h -7.153285 v -1.99425 h 7.153285 z"
           style="fill:#0090ff;fill-opacity:1;stroke-width:0.26458335" />
        <path
           inkscape:connector-curvature="0"
           id="path19758"
           d="m 90.737411,184.28153 h -7.153285 v -2.42778 h 7.153285 z"
           style="fill:#2da4ff;fill-opacity:1;stroke-width:0.26458335" />
        <path
           inkscape:connector-curvature="0"
           id="path19756"
           d="M 90.737411,188.53015 H 79.422214 v -2.16766 h 11.315197 z"
           style="fill:#4bb1ff;fill-opacity:1;stroke-width:0.26458335" />
        <path
           inkscape:connector-curvature="0"
           id="path19617"
           d="M 90.737411,192.73541 H 79.422214 v -2.12431 h 11.315197 z"
           style="fill:#6ac0ff;fill-opacity:1;stroke-width:0.26458335" />
        <path
           inkscape:connector-curvature="0"
           id="path19752"
           d="m 139.46638,172.35939 h -6.97988 v -1.86419 h 6.97988 z"
           style="fill:#0071c8;fill-opacity:1;stroke-width:0.26458335" />
        <path
           inkscape:connector-curvature="0"
           id="path19750"
           d="m 139.46638,164.29568 h -27.18249 v -2.16766 h 27.18249 z"
           style="fill:#005aa0;fill-opacity:1;stroke-width:0.26458335" />
        <path
           inkscape:connector-curvature="0"
           id="path19748"
           d="m 139.46638,168.50095 h -27.18249 v -2.16766 h 27.18249 z"
           style="fill:#006bbd;fill-opacity:1;stroke-width:0.26458335" />
        <path
           inkscape:connector-curvature="0"
           id="path19746"
           d="m 124.63957,172.35939 h -8.19377 v -1.86419 h 8.19377 z"
           style="fill:#0071c8;fill-opacity:1;stroke-width:0.26458335" />
        <path
           inkscape:connector-curvature="0"
           id="path19744"
           d="M 130.83908,176.21783 H 116.4458 v -1.90755 h 14.39328 z"
           style="fill:#007cdc;fill-opacity:1;stroke-width:0.26458335" />
        <path
           inkscape:connector-curvature="0"
           id="path19742"
           d="M 130.83908,179.94621 H 116.4458 v -1.99425 h 14.39328 z"
           style="fill:#0090ff;fill-opacity:1;stroke-width:0.26458335" />
        <path
           inkscape:connector-curvature="0"
           id="path19740"
           d="m 124.63957,184.28153 h -8.19377 v -2.42778 h 8.19377 z"
           style="fill:#2da4ff;fill-opacity:1;stroke-width:0.26458335" />
        <path
           inkscape:connector-curvature="0"
           id="path19738"
           d="m 128.75812,188.53015 h -16.47423 v -2.16766 h 16.47423 z"
           style="fill:#4bb1ff;fill-opacity:1;stroke-width:0.26458335" />
        <path
           inkscape:connector-curvature="0"
           id="path19619"
           d="m 128.75812,192.73541 h -16.47423 v -2.12431 h 16.47423 z"
           style="fill:#6ac0ff;fill-opacity:1;stroke-width:0.26458335" />
        <path
           inkscape:connector-curvature="0"
           id="path19734"
           d="m 165.82508,170.4952 q -0.17341,1.04048 -0.43353,1.86419 h -8.80071 v -1.86419 z"
           style="fill:#0071c8;fill-opacity:1;stroke-width:0.26458335" />
        <path
           inkscape:connector-curvature="0"
           id="path19732"
           d="m 164.0476,164.29568 h -24.668 v -2.16766 h 19.76908 q 2.99137,0 4.89892,2.16766 z"
           style="fill:#005aa0;fill-opacity:1;stroke-width:0.26458335" />
        <path
           inkscape:connector-curvature="0"
           id="path19730"
           d="M 165.82508,168.50095 H 139.3796 v -2.16766 h 25.88189 q 0.43353,1.21389 0.56359,2.16766 z"
           style="fill:#006bbd;fill-opacity:1;stroke-width:0.26458335" />
        <path
           inkscape:connector-curvature="0"
           id="path19728"
           d="m 164.43778,174.31028 q -0.86707,1.17054 -2.16767,1.90755 h -18.77195 v -1.90755 z"
           style="fill:#007cdc;fill-opacity:1;stroke-width:0.26458335" />
        <path
           inkscape:connector-curvature="0"
           id="path19726"
           d="m 164.74125,184.28153 h -8.15041 v -2.42778 h 8.02035 q 0.13006,1.12718 0.13006,2.42778 z"
           style="fill:#2da4ff;fill-opacity:1;stroke-width:0.26458335" />
        <path
           inkscape:connector-curvature="0"
           id="path19724"
           d="m 151.90869,172.35939 h -8.41053 v -1.86419 h 8.41053 z"
           style="fill:#0071c8;fill-opacity:1;stroke-width:0.26458335" />
        <path
           inkscape:connector-curvature="0"
           id="path19722"
           d="m 164.22101,179.94621 h -20.72285 v -1.99425 h 19.33555 q 0.86706,0.65029 1.3873,1.99425 z"
           style="fill:#0090ff;fill-opacity:1;stroke-width:0.26458335" />
        <path
           inkscape:connector-curvature="0"
           id="path19720"
           d="m 168.07945,188.53015 h -11.48861 v -2.16766 h 11.48861 z"
           style="fill:#4bb1ff;fill-opacity:1;stroke-width:0.26458335" />
        <path
           inkscape:connector-curvature="0"
           id="path19718"
           d="m 168.07945,192.73541 h -11.48861 v -2.12431 h 11.48861 z"
           style="fill:#6ac0ff;fill-opacity:1;stroke-width:0.26458335" />
        <path
           inkscape:connector-curvature="0"
           id="path19716"
           d="m 151.90869,184.28153 h -8.41053 v -2.42778 h 8.41053 z"
           style="fill:#2da4ff;fill-opacity:1;stroke-width:0.26458335" />
        <path
           inkscape:connector-curvature="0"
           id="path19714"
           d="M 151.90869,188.53015 H 139.3796 v -2.16766 h 12.52909 z"
           style="fill:#4bb1ff;fill-opacity:1;stroke-width:0.26458335" />
        <path
           inkscape:connector-curvature="0"
           id="path19621"
           d="M 151.90869,192.73541 H 139.3796 v -2.12431 h 12.52909 z"
           style="fill:#6ac0ff;fill-opacity:1;stroke-width:0.26458335" />
        <path
           inkscape:connector-curvature="0"
           id="path19710"
           d="m 190.23282,164.29568 h -14.04646 l 0.34683,-2.16766 h 13.30945 z"
           style="fill:#005aa0;fill-opacity:1;stroke-width:0.26458335" />
        <path
           inkscape:connector-curvature="0"
           id="path19708"
           d="m 191.70683,172.48945 h -7.63018 l -0.34682,-1.99425 h 7.58682 z"
           style="fill:#0071c8;fill-opacity:1;stroke-width:0.26458335" />
        <path
           inkscape:connector-curvature="0"
           id="path19706"
           d="M 190.96982,168.50095 H 183.383 l -0.21676,-1.34395 -0.21677,1.34395 h -7.50011 l 0.34683,-2.16766 h 14.78345 z"
           style="fill:#006bbd;fill-opacity:1;stroke-width:0.26458335" />
        <path
           inkscape:connector-curvature="0"
           id="path19704"
           d="m 192.40048,176.43459 h -7.63017 l -0.34683,-1.99425 h 7.58682 z"
           style="fill:#007cdc;fill-opacity:1;stroke-width:0.26458335" />
        <path
           inkscape:connector-curvature="0"
           id="path19702"
           d="m 182.60264,170.4952 -0.39017,1.99425 h -7.45676 l 0.34682,-1.99425 z"
           style="fill:#0071c8;fill-opacity:1;stroke-width:0.26458335" />
        <path
           inkscape:connector-curvature="0"
           id="path19700"
           d="m 198.38323,188.53015 h -12.18227 l -0.30347,-2.16766 h 12.48574 z"
           style="fill:#4bb1ff;fill-opacity:1;stroke-width:0.26458335" />
        <path
           inkscape:connector-curvature="0"
           id="path19698"
           d="M 193.09413,180.37974 H 173.3684 l 0.34683,-1.9509 h 19.03207 z"
           style="fill:#0090ff;fill-opacity:1;stroke-width:0.26458335" />
        <path
           inkscape:connector-curvature="0"
           id="path19696"
           d="m 181.90899,174.44034 -0.39018,1.99425 h -7.45675 l 0.34682,-1.99425 z"
           style="fill:#007cdc;fill-opacity:1;stroke-width:0.26458335" />
        <path
           inkscape:connector-curvature="0"
           id="path19694"
           d="m 198.38323,192.73541 h -11.57532 l -0.30347,-2.12431 h 11.87879 z"
           style="fill:#6ac0ff;fill-opacity:1;stroke-width:0.26458335" />
        <path
           inkscape:connector-curvature="0"
           id="path19692"
           d="M 193.78778,184.28153 H 172.7181 l 0.34683,-1.99425 h 20.37603 z"
           style="fill:#2da4ff;fill-opacity:1;stroke-width:0.26458335" />
        <path
           inkscape:connector-curvature="0"
           id="path19690"
           d="m 180.43498,186.36249 -0.30347,2.16766 h -12.22562 v -2.16766 z"
           style="fill:#4bb1ff;fill-opacity:1;stroke-width:0.26458335" />
        <path
           inkscape:connector-curvature="0"
           id="path19623"
           d="m 179.82804,190.6111 -0.30348,2.12431 h -11.61867 v -2.12431 z"
           style="fill:#6ac0ff;fill-opacity:1;stroke-width:0.26458335" />
        <path
           inkscape:connector-curvature="0"
           id="path19686"
           d="m 235.53689,164.33904 h -13.87304 l 0.95377,-2.16766 h 12.91927 z"
           style="fill:#005aa0;fill-opacity:1;stroke-width:0.26458335" />
        <path
           inkscape:connector-curvature="0"
           id="path19684"
           d="m 235.53689,168.5443 h -15.82393 l 0.99712,-2.16766 h 14.82681 z"
           style="fill:#006bbd;fill-opacity:1;stroke-width:0.26458335" />
        <path
           inkscape:connector-curvature="0"
           id="path19682"
           d="m 231.37498,172.40274 h -13.43951 l 0.86707,-1.86419 h 12.57244 z"
           style="fill:#0071c8;fill-opacity:1;stroke-width:0.26458335" />
        <path
           inkscape:connector-curvature="0"
           id="path19680"
           d="m 231.37498,179.98956 h -7.89029 v -1.99425 h 7.89029 z"
           style="fill:#0090ff;fill-opacity:1;stroke-width:0.26458335" />
        <path
           inkscape:connector-curvature="0"
           id="path19678"
           d="m 231.37498,184.32488 h -7.89029 v -2.42778 h 7.89029 z"
           style="fill:#2da4ff;fill-opacity:1;stroke-width:0.26458335" />
        <path
           inkscape:connector-curvature="0"
           id="path19676"
           d="m 235.53689,188.5735 h -12.0522 v -2.16766 h 12.0522 z"
           style="fill:#4bb1ff;fill-opacity:1;stroke-width:0.26458335" />
        <path
           inkscape:connector-curvature="0"
           id="path19674"
           d="m 231.37498,176.21783 h -7.89029 v -1.3006 l -0.52024,1.3006 h -13.3528 l -0.56359,-1.43066 v 1.43066 h -7.63017 v -1.90755 h 14.39327 l 0.6503,1.34395 0.60695,-1.34395 h 14.30657 z"
           style="fill:#007cdc;fill-opacity:1;stroke-width:0.26458335" />
        <path
           inkscape:connector-curvature="0"
           id="path19672"
           d="m 210.99895,164.29568 h -13.78633 v -2.16766 h 12.74586 z"
           style="fill:#005aa0;fill-opacity:1;stroke-width:0.26458335" />
        <path
           inkscape:connector-curvature="0"
           id="path19670"
           d="m 235.53689,192.77877 h -12.0522 v -2.12431 h 12.0522 z"
           style="fill:#6ac0ff;fill-opacity:1;stroke-width:0.26458335" />
        <path
           inkscape:connector-curvature="0"
           id="path19668"
           d="m 212.9932,168.50095 h -15.78058 v -2.16766 h 14.74011 z"
           style="fill:#006bbd;fill-opacity:1;stroke-width:0.26458335" />
        <path
           inkscape:connector-curvature="0"
           id="path19666"
           d="m 222.2708,177.95196 -0.78036,1.99425 h -10.36143 l -0.82371,-1.99425 z"
           style="fill:#0090ff;fill-opacity:1;stroke-width:0.26458335" />
        <path
           inkscape:connector-curvature="0"
           id="path19664"
           d="m 214.90075,172.35939 h -13.48286 v -1.86419 h 12.57244 z"
           style="fill:#0071c8;fill-opacity:1;stroke-width:0.26458335" />
        <path
           inkscape:connector-curvature="0"
           id="path19662"
           d="m 220.75343,181.85375 -0.99712,2.42778 h -6.84981 l -0.99713,-2.42778 z"
           style="fill:#2da4ff;fill-opacity:1;stroke-width:0.26458335" />
        <path
           inkscape:connector-curvature="0"
           id="path19660"
           d="m 218.9326,186.36249 -0.82371,2.16766 h -3.46826 l -0.86707,-2.16766 z"
           style="fill:#4bb1ff;fill-opacity:1;stroke-width:0.26458335" />
        <path
           inkscape:connector-curvature="0"
           id="path19658"
           d="m 209.04806,179.94621 h -7.63017 v -1.99425 h 7.63017 z"
           style="fill:#0090ff;fill-opacity:1;stroke-width:0.26458335" />
        <path
           inkscape:connector-curvature="0"
           id="path19656"
           d="m 217.28517,190.6111 -0.86706,2.16767 -0.91042,-2.16767 z"
           style="fill:#6ac0ff;fill-opacity:1;stroke-width:0.26458335" />
        <path
           inkscape:connector-curvature="0"
           id="path19654"
           d="m 209.04806,184.28153 h -7.63017 v -2.42778 h 7.63017 z"
           style="fill:#2da4ff;fill-opacity:1;stroke-width:0.26458335" />
        <path
           inkscape:connector-curvature="0"
           id="path19652"
           d="m 209.04806,188.53015 h -11.83544 v -2.16766 h 11.83544 z"
           style="fill:#4bb1ff;fill-opacity:1;stroke-width:0.26458335" />
        <path
           inkscape:connector-curvature="0"
           id="path19625"
           d="m 209.04806,192.73541 h -11.83544 v -2.12431 h 11.83544 z"
           style="fill:#6ac0ff;fill-opacity:1;stroke-width:0.26458335" />
        <path
           inkscape:connector-curvature="0"
           id="path19648"
           d="m 261.15862,172.35939 h -6.97987 v -1.86419 h 6.97987 z"
           style="fill:#0071c8;fill-opacity:1;stroke-width:0.26458335" />
        <path
           inkscape:connector-curvature="0"
           id="path19646"
           d="m 261.15862,164.29568 h -25.49171 v -2.16766 h 25.49171 z"
           style="fill:#005aa0;fill-opacity:1;stroke-width:0.26458335" />
        <path
           inkscape:connector-curvature="0"
           id="path19644"
           d="m 261.15862,168.50095 h -25.49171 v -2.16766 h 25.49171 z"
           style="fill:#006bbd;fill-opacity:1;stroke-width:0.26458335" />
        <path
           inkscape:connector-curvature="0"
           id="path19642"
           d="m 261.6355,184.28153 h -7.45675 v -2.42778 h 7.45675 z"
           style="fill:#2da4ff;fill-opacity:1;stroke-width:0.26458335" />
        <path
           inkscape:connector-curvature="0"
           id="path19640"
           d="m 248.02259,172.35939 h -8.19377 v -1.86419 h 8.19377 z"
           style="fill:#0071c8;fill-opacity:1;stroke-width:0.26458335" />
        <path
           inkscape:connector-curvature="0"
           id="path19638"
           d="m 254.26545,176.21783 h -14.43663 v -1.90755 h 14.43663 z"
           style="fill:#007cdc;fill-opacity:1;stroke-width:0.26458335" />
        <path
           inkscape:connector-curvature="0"
           id="path19636"
           d="m 254.26545,179.94621 h -14.43663 v -1.99425 h 14.43663 z"
           style="fill:#0090ff;fill-opacity:1;stroke-width:0.26458335" />
        <path
           inkscape:connector-curvature="0"
           id="path19634"
           d="m 261.6355,188.53015 h -25.96859 v -2.16766 h 25.96859 z"
           style="fill:#4bb1ff;fill-opacity:1;stroke-width:0.26458335" />
        <path
           inkscape:connector-curvature="0"
           id="path19632"
           d="m 248.02259,184.28153 h -8.19377 v -2.42778 h 8.19377 z"
           style="fill:#2da4ff;fill-opacity:1;stroke-width:0.26458335" />
        <path
           inkscape:connector-curvature="0"
           id="path19627"
           d="M 261.6355,192.73541 H 235.66691 V 190.6111 H 261.6355 Z"
           style="fill:#6ac0ff;fill-opacity:1;stroke-width:0.26458335" />
      </g>
      <path
         inkscape:connector-curvature="0"
         id="text882"
         d="m 18.744592,128.63346 -5.485453,3.61993 12.898954,19.54816 1.390612,-0.91777 0.548288,0.83044 -1.391129,0.91777 4.078819,6.18154 c 0.101971,0.15453 0.267952,0.37766 0.497644,0.66973 l 7.263122,-4.79248 0.280088,0.42478 5.292699,-3.49229 -1.044895,-1.58388 -1.622642,1.07073 -0.369486,-0.56017 1.62264,-1.07073 -1.619023,-2.45308 -8.170561,5.3914 -7.736995,-11.72487 1.062468,-0.70125 z m 23.959261,20.84576 0.369488,0.56017 2.008661,-1.3255 -0.369486,-0.56017 z M 12.026656,133.08538 c -0.01337,8e-4 -0.02737,0.004 -0.04237,0.009 l -5.215702,3.44165 c -0.05151,0.034 -0.062166,0.0873 -0.032556,0.1602 l 8.195365,12.42043 -1.390613,0.91777 c -0.05151,0.034 -0.06268,0.0873 -0.03307,0.1602 l 0.395325,0.59893 c 0.04249,0.0644 0.09581,0.075 0.160197,0.0325 l 1.39113,-0.91777 9.419063,14.2751 c 0.04249,0.0644 0.09581,0.075 0.160197,0.0325 l 4.501008,-2.96942 c 0.06439,-0.0425 0.07504,-0.0958 0.03256,-0.1602 l -9.202539,-13.94644 0.61805,-0.40772 c 0.05151,-0.034 0.05592,-0.0834 0.01344,-0.1478 l -8.871293,-13.44415 c -0.02549,-0.0386 -0.05806,-0.057 -0.09819,-0.0548 z m -7.8656699,5.17126 -5.8719928,3.87522 c 0.1653056,0.33455 1.78907714,4.4203 4.8715371,12.25713 l 0.9270754,-0.61184 0.701249,1.06195 -1.1787394,0.77773 2.4727173,3.74757 -0.5984129,0.39481 2.4980386,3.78633 -1.6226401,1.07074 -1.6949869,-2.56936 -0.6568072,0.43357 -3.27576917,-4.96455 -2.06705723,1.36373 -0.7007324,-1.06246 2.06654046,-1.36374 0.70124917,1.06247 1.46812737,-0.96842 -0.7012491,-1.06247 -1.21698,0.80305 c -5.9799164,-5.92492 -9.0912261,-9.02955 -9.3337972,-9.31312 l -5.8719931,3.87521 c 12.7200474,12.16153 19.2997834,18.42094 19.738847,18.77818 1.2690086,1.30686 1.9417326,1.93459 2.0189981,1.88361 l 1.9895425,-1.3131 0.7648112,1.1591 -1.7766355,1.17254 c 1.2309014,1.2211 1.8848884,1.80644 1.9621539,1.75545 l 6.8765828,-4.53771 -3.275769,-4.96404 2.182812,-1.44073 -1.860868,-2.81999 -1.21698,0.80305 -0.637687,-0.96583 1.62264,-1.07073 -3.17345,-4.80953 c -0.118964,-0.18029 -2.1625192,-5.58851 -6.1303749,-16.22382 z m 13.4746299,9.07594 0.522965,0.79168 -2.665987,1.75907 -0.522449,-0.7922 z m 15.809886,2.65462 -0.289903,0.1912 c -0.05151,0.034 -0.05643,0.19472 -0.01498,0.48162 -0.02574,0.017 -0.188322,-0.0329 -0.487309,-0.14986 l -0.328145,0.21652 0.736389,0.31781 0.02585,0.0388 0.0026,0.80254 0.03824,0.0579 0.270269,-0.17828 c 0.0232,-0.38501 0.04762,-0.58607 0.07338,-0.60306 0.07648,0.1159 0.238789,0.19338 0.486794,0.23306 l 0.32866,-0.21652 c -0.40998,-0.17311 -0.689861,-0.30284 -0.839224,-0.38913 0.0276,-0.40639 0.02682,-0.67402 -0.0026,-0.80253 z m -49.554079,1.67224 -13.63741,8.99894 9.011852,13.65653 -4.423502,2.9192 0.394808,0.59841 4.423502,-2.91868 2.307353,3.49643 0.598413,-0.39533 6.539136,9.90947 4.0560828,-2.67683 -0.394808,-0.59893 8.5183431,-5.62085 -2.24327396,-3.39979 0.56017255,-0.36949 -0.43356527,-0.65681 -1.65209552,1.09038 0.014986,0.0238 -1.3275675,0.84233 -4.1630533,2.7466 -1.1342979,-1.71876 -1.680517,1.10846 -0.369487,-0.56017 1.6805176,-1.10846 -3.7475746,-5.67924 6.2972898,-4.1553 -0.9177734,-1.39062 -0.3281455,0.21653 c -0.025493,-0.0386 -0.025754,-0.0662 0,-0.0832 -1.1082573,-1.81959 -1.7217503,-2.81953 -1.8407144,-2.99982 l -0.025322,-0.0388 -7.263121,4.79248 -3.9641,-6.00739 8.093563,-5.34076 c 0.06439,-0.0425 0.07556,-0.0958 0.03307,-0.16019 z m -2.30787,21.12585 0.395325,0.59893 -2.279447,1.5043 -0.395325,-0.59893 z m 18.19682217,2.7435 -0.27026774,0.17828 0.19120281,0.28991 c 0.26342027,0.3992 0.44005709,0.56901 0.53020017,0.50953 0.0901431,-0.0595 -0.0475052,-0.36611 -0.41289469,-0.91984 z m 0.61184895,0.92707 -0.27026774,0.1788 0.19120281,0.28939 0.27026772,-0.17828 z"
         style="font-style:normal;font-variant:normal;font-weight:normal;font-stretch:normal;font-size:47.3963356px;line-height:1.25;font-family:HACKED;-inkscape-font-specification:HACKED;letter-spacing:0px;word-spacing:0px;display:inline;fill:#d40000;fill-opacity:1;stroke:none;stroke-width:0.26458329" />
      <text
         id="text892"
         y="201.45915"
         x="213.46074"
         style="font-style:normal;font-variant:normal;font-weight:normal;font-stretch:normal;font-size:11.50409698px;line-height:1.25;font-family:'3270 Condensed';-inkscape-font-specification:'3270 Condensed, ';letter-spacing:0px;word-spacing:0px;display:none;fill:#ffffff;fill-opacity:1;stroke:none;stroke-width:0.26458335"
         xml:space="preserve"><tspan
           dx="-1.59"
           style="font-style:normal;font-variant:normal;font-weight:normal;font-stretch:normal;font-family:'3270 Semi-Condensed';-inkscape-font-specification:'3270 Semi-Condensed, ';fill:#ffffff;fill-opacity:1;stroke-width:0.26458335"
           y="201.45915"
           x="213.46074"
           id="tspan890"
           sodipodi:role="line">#070c0000</tspan></text>
      <text
         id="text19966"
         y="157.28329"
         x="263.27832"
         style="font-style:normal;font-variant:normal;font-weight:normal;font-stretch:normal;font-size:4.23333311px;line-height:1.25;font-family:C059;-inkscape-font-specification:C059;letter-spacing:0px;word-spacing:0px;fill:#000000;fill-opacity:1;stroke:none;stroke-width:0.26458332"
         xml:space="preserve"><tspan
           style="font-style:normal;font-variant:normal;font-weight:normal;font-stretch:normal;font-size:2.82222223px;font-family:'Noto Sans';-inkscape-font-specification:'Noto Sans';fill:#ffffff;stroke-width:0.26458332"
           y="157.28329"
           x="263.27832"
           id="tspan19964"
           sodipodi:role="line">TM</tspan></text>
    </g>
  </g>
</svg>
